# xmcd CD database file
#
# Track frame offsets:
#	150
#	28489
#	67658
#	108712
#	158838
#	177063
#	181758
#	228701
#	252519
#	271260
#
# Disc length: 4067 seconds
#
# Revision: 1
# Processed by: cddbd v1.5.2PL0 Copyright (c) Steve Scherf et al.
# Submitted via: CDex 1.79
#
DISCID=850fe10a
DTITLE=Pericopes - These Human Beings
DYEAR=2015
DGENRE=Jazz
TTITLE0=Through Piat
TTITLE1=Baldwin
TTITLE2=Jersey Zombies
TTITLE3=Lo Viatge
TTITLE4=First Minute of Inception
TTITLE5=Adunata
TTITLE6=Path Man
TTITLE7=Insunity
TTITLE8=Melan - part.1
TTITLE9=Changing World
EXTD=YEAR: 2015
EXTT0=
EXTT1=
EXTT2=
EXTT3=
EXTT4=
EXTT5=
EXTT6=
EXTT7=
EXTT8=
EXTT9=
PLAYORDER=
